<svg height="1024pt" preserveAspectRatio="xMidYMid meet" viewBox="0 0 1024 1024" width="1024pt" xmlns="http://www.w3.org/2000/svg"><g transform="matrix(.1 0 0 -.1 0 1024)"><path d="m1600 7240v-1510h188 188l42 608c24 334 61 864 82 1177 22 314 42 590 45 615l5 46-275 287-275 287z"/><path d="m3141 7269c-191-499-527-1442-571-1602-12-46-20-53-159-159-196-148-201-153-201-200v-38h-51c-47 0-56-4-135-66l-84-66v66 66h-340-340v-130-130h340 340v-325-325h-344-345l-3 43-3 42-29-49c-69-115-66-201 11-286 115-128 376-219 757-264l101-12-5-54c-12-130-4-455 14-548 35-192 111-380 237-591l61-101h317 317l-67 203c-160 477-195 728-154 1079 65 560 363 1234 788 1788l64 83-63 82c-153 204-237 428-251 670-22 409 170 790 547 1087l35 28h-336-337z"/><path d="m6270 7532c285-225 456-485 526-802 24-106 24-338 0-448-41-194-127-378-246-527l-49-62 76-99c166-218 343-508 468-769 276-575 377-1108 296-1575-22-127-75-314-155-552l-54-158h317 317l62 103c171 284 250 543 259 850 3 92 7 167 9 167s54-25 115-55c257-127 479-166 598-106 99 51 89 167-35 426-145 303-516 851-1016 1503l-156 203-90 267c-157 467-422 1196-559 1537l-48 120-335 2-335 3z"/><path d="m3879 7196c-209-60-349-246-349-461 0-189 103-350 275-432 64-30 90-36 163-41 149-8 256 31 360 132 97 94 142 202 142 342 0 204-112 369-301 445-67 27-221 35-290 15zm-16-236c39-44 38-110-2-150-51-52-111-52-162 0-52 51-32 152 35 181 40 17 99 3 129-31z"/><path d="m6031 7194c-127-34-236-125-295-246-68-140-69-285-2-423 143-293 528-357 756-126 260 264 140 703-217 796-71 19-171 18-242-1zm-41-209c85-44 75-175-15-205-45-15-82-6-117 27-94 89 17 237 132 178z"/><path d="m4659 6331c48-67 302-291 368-325 46-23 73-20 131 17 63 39 254 211 317 284l46 53h-441-441z"/></g></svg>